<?xml version="1.0" encoding="UTF-8"?>
<svg id="Layer_1" xmlns="http://www.w3.org/2000/svg" version="1.1" viewBox="0 0 612 792">
  <!-- Generator: Adobe Illustrator 29.2.1, SVG Export Plug-In . SVG Version: 2.1.0 Build 116)  -->
  <defs>
    <style>
      .st0 {
        fill: #eb2026;
      }

      .st1 {
        fill: #2e3192;
      }
    </style>
  </defs>
  <path class="st0" d="M183.96,215.59c35.27-37.77,41.84-89.29,13.04-112.95-28.8-23.66-82.54-17.57-115.35,22.36,0,0-35.88,43.85-30.31,116.65,3.25,42.46,18.07,53.6,29.86,55.52,7.16,1.16,14.41-1.22,20.1-5.71,12.65-9.98,48.26-39.01,82.66-75.86Z"/>
  <g>
    <path class="st1" d="M389.38,493.54c-35.79-95,58.2-185.54,93.66-214.75,14.8-12.2,33.2-27.01,45.62-41.62,3.94-4.63,7.42-9.07,10.49-13.34,29.94-41.54-1.85-100.86-52.97-97.98-43.08,2.42-90.05,22.31-110.25,31.34-5.97,2.67-17.49,8.28-32.44,16.45,0-.01.01-.03.02-.04,0,0-181.97,88.33-219.5,217-.05.16-.09.31-.14.47-.84,2.92-1.61,5.87-2.3,8.83-.26,1.06-.59,2.11-.83,3.18l.13.04c-2.39,11.24-3.78,22.74-3.69,34.52,1.01,130.3,200.31,244.85,231.9,260.83,31.59,15.98,122.03,62.68,167.99,18.87,0,0,44.77-35.48-39-123.37-33.74-35.4-63.7-69.58-88.69-100.43Z"/>
    <path class="st0" d="M343.53,173.59s-227.53,110.33-226.33,264.05c1.01,130.3,200.31,244.85,231.9,260.83,31.59,15.98,125.01,67.09,168.56,19.01,15.26-16.84,26.88-53.78-39.58-123.51-88.36-92.71-151.04-177.18-165.36-214.83-14.32-37.64-29.19-116.03,30.81-205.55Z"/>
  </g>
</svg>